<svg id="Capa_1" data-name="Capa 1" xmlns="http://www.w3.org/2000/svg" viewBox="0 0 783.35 788.43"><defs><style>.cls-1{fill:#fff;}</style></defs><path d="M660.57,815.58l3.69-2.86c-.26-4.28.83-9.26-1-12.73-12.18-23.42-24.6-46.73-37.72-69.63-6-10.54-3.28-19,8.58-19.45,5.7-.23,12.26.76,17.12,3.51,21.56,12.2,42.29,25.87,64,37.84,41.44,22.9,83.24,45.17,125.14,67.23,5.13,2.7,11.77,2.51,17.72,3.66l6.78-8.92c-4.45-1.22-9.76-1.27-13.22-3.82-33.86-25-67.43-50.38-101.07-75.67-31.52-23.71-64.43-45.84-94.13-71.65C629.85,640,604.66,614.5,582.65,587c-33.95-42.42-64.31-87.69-96.84-131.27-27.1-36.3-54.52-72.4-82.93-107.68-23.33-29-48.33-56.59-72.57-84.83-9.78-11.38-8.47-23-3.65-36.63,4.75-13.46,8.86-28.74,7.22-42.51-2.91-24.45,8.83-61.37,29.28-74.35C384.84,96,407.39,83.62,429.25,70.15c4.12-2.53,6.8-7.39,10.14-11.18-3.85-2.43-7.44-5.47-11.58-7.19C399.67,40.11,370.58,40.89,341,44.47c-17.17,2.07-35.2,5.66-50.51-7.53a11,11,0,0,0-7.64-2.16c-48.5,5.43-93.65,20.07-123.67,60.72-24.75,33.51-45.55,70-66.81,106-5.87,9.92-7.14,22.55-10.83,35l31.63-7.38c-2.48,7.38-3.92,10.83-4.8,14.42-6.31,25.78-15,51.3-18,77.47-3.18,27.78-1.35,56.19-.88,84.3.64,38.14,22.17,64.39,50.67,86.47,18.8,14.57,38,28.7,55.84,44.41,20.66,18.2,40.11,37.78,59.77,57.09a22.73,22.73,0,0,1,5.78,11.2c3.48,17.55,6.5,35.19,9.35,52.85.7,4.29,1.44,9.28,0,13.1q-12,31-25.32,61.57c-3.21,7.35-9.3,13.57-11.83,21.07-5.8,17.2-18.86,25.28-34.88,28.78-22.39,4.89-45.17,8-67.66,12.45-4.38.87-8.2,4.55-12.27,6.93.84,2.65,1.69,5.3,2.53,7.95,40.63-16,84.07-2.09,125.1-13.86C229.34,782.8,229,772.84,244.41,761c6-4.57,11.81-9.95,16-16.13,16.61-24.63,33.21-49.32,48.42-74.81,8.47-14.18,18.18-22.11,35.47-19.54,5.59.83,11.84-1.55,17.58-3.18,24.7-7,48.49-8,71.24,7a70,70,0,0,0,24,9.81c31.27,6.39,68.57,43.8,75.24,75,3.4,15.9,9.17,31.29,13.87,46.91l6.27-.24c2-4.4,3.79-8.89,6-13.18a82.5,82.5,0,0,1,6.67-11.2c3.34-4.56,8.77-8.22,10.47-13.22,4.77-14,15.41-18.08,24.79-6.84,17.62,21.11,33.74,43.47,50.68,65.16C653.73,810,657.38,812.59,660.57,815.58Z" transform="translate(-81.52 -34.72)"/><path class="cls-1" d="M660.57,815.58c-3.19-3-6.84-5.61-9.49-9-16.94-21.69-33.06-44-50.68-65.16-9.38-11.24-20-7.2-24.79,6.84-1.7,5-7.13,8.66-10.47,13.22a82.5,82.5,0,0,0-6.67,11.2c-2.2,4.29-4,8.78-6,13.18l-6.27.24c-4.7-15.62-10.47-31-13.87-46.91-6.67-31.18-44-68.59-75.24-75a70,70,0,0,1-24-9.81c-22.75-15-46.54-14-71.24-7-5.74,1.63-12,4-17.58,3.18-17.29-2.57-27,5.36-35.47,19.54-15.21,25.49-31.81,50.18-48.42,74.81-4.16,6.18-10,11.56-16,16.13-15.42,11.81-15.07,21.77,2.07,34.29-41,11.77-84.47-2.12-125.1,13.86-.84-2.65-1.69-5.3-2.53-7.95,4.07-2.38,7.89-6.06,12.27-6.93,22.49-4.47,45.27-7.56,67.66-12.45,16-3.5,29.08-11.58,34.88-28.78,2.53-7.5,8.62-13.72,11.83-21.07q13.31-30.51,25.32-61.57c1.47-3.82.73-8.81,0-13.1C268,639.67,265,622,261.49,604.48a22.73,22.73,0,0,0-5.78-11.2c-19.66-19.31-39.11-38.89-59.77-57.09-17.82-15.71-37-29.84-55.84-44.41-28.5-22.08-50-48.33-50.67-86.47-.47-28.11-2.3-56.52.88-84.3,3-26.17,11.73-51.69,18-77.47.88-3.59,2.32-7,4.8-14.42L81.52,236.5c3.69-12.46,5-25.09,10.83-35,21.26-36,42.06-72.48,66.81-106,30-40.65,75.17-55.29,123.67-60.72a11,11,0,0,1,7.64,2.16c15.31,13.19,33.34,9.6,50.51,7.53,29.6-3.58,58.69-4.36,86.83,7.31,4.14,1.72,7.73,4.76,11.58,7.19-3.34,3.79-6,8.65-10.14,11.18C407.39,83.62,384.84,96,363.16,109.74c-20.45,13-32.19,49.9-29.28,74.35,1.64,13.77-2.47,29-7.22,42.51-4.82,13.64-6.13,25.25,3.65,36.63,24.24,28.24,49.24,55.86,72.57,84.83,28.41,35.28,55.83,71.38,82.93,107.68,32.53,43.58,62.89,88.85,96.84,131.27,22,27.49,47.2,53,73.8,76.08,29.7,25.81,62.61,47.94,94.13,71.65,33.64,25.29,67.21,50.69,101.07,75.67,3.46,2.55,8.77,2.6,13.22,3.82l-6.78,8.92c-6-1.15-12.59-1-17.72-3.66-41.9-22.06-83.7-44.33-125.14-67.23-21.68-12-42.41-25.64-64-37.84-4.86-2.75-11.42-3.74-17.12-3.51-11.86.47-14.62,8.91-8.58,19.45,13.12,22.9,25.54,46.21,37.72,69.63,1.81,3.47.72,8.45,1,12.73Z" transform="translate(-81.52 -34.72)"/></svg>